{
	"asset":{
		"generator":"Khronos glTF Blender I/O v4.0.43",
		"version":"2.0"
	},
	"extensionsUsed":[
		"KHR_materials_unlit"
	],
	"scene":0,
	"scenes":[
		{
			"name":"Scene",
			"nodes":[
				2
			]
		}
	],
	"nodes":[
		{
			"mesh":0,
			"name":"Object_2",
			"rotation":[
				0,
				0,
				1,
				7.549790126404332e-08
			]
		},
		{
			"children":[
				0
			],
			"name":"0ebb63fbf8774004a61c594c772e76a9.obj.cleaner.materialmerger.gle"
		},
		{
			"children":[
				1
			],
			"name":"Sketchfab_model",
			"rotation":[
				-0.7071069478988647,
				0,
				0,
				0.7071065902709961
			]
		}
	],
	"materials":[
		{
			"doubleSided":true,
			"extensions":{
				"KHR_materials_unlit":{}
			},
			"name":"m_14",
			"pbrMetallicRoughness":{
				"baseColorTexture":{
					"index":0
				},
				"metallicFactor":0,
				"roughnessFactor":0.9
			}
		}
	],
	"meshes":[
		{
			"name":"Object_0",
			"primitives":[
				{
					"attributes":{
						"POSITION":0,
						"NORMAL":1,
						"TEXCOORD_0":2
					},
					"indices":3,
					"material":0
				}
			]
		}
	],
	"textures":[
		{
			"sampler":0,
			"source":0
		}
	],
	"images":[
		{
			"mimeType":"image/png",
			"name":"m_14_baseColor",
			"uri":"Textures/m_14_baseColor.png"
		}
	],
	"accessors":[
		{
			"bufferView":0,
			"componentType":5126,
			"count":2865,
			"max":[
				1.5358299016952515,
				0.8998772501945496,
				3.0427606105804443
			],
			"min":[
				-0.8831718564033508,
				-0.6103781461715698,
				0
			],
			"type":"VEC3"
		},
		{
			"bufferView":1,
			"componentType":5126,
			"count":2865,
			"type":"VEC3"
		},
		{
			"bufferView":2,
			"componentType":5126,
			"count":2865,
			"type":"VEC2"
		},
		{
			"bufferView":3,
			"componentType":5123,
			"count":4194,
			"type":"SCALAR"
		}
	],
	"bufferViews":[
		{
			"buffer":0,
			"byteLength":34380,
			"byteOffset":0,
			"target":34962
		},
		{
			"buffer":0,
			"byteLength":34380,
			"byteOffset":34380,
			"target":34962
		},
		{
			"buffer":0,
			"byteLength":22920,
			"byteOffset":68760,
			"target":34962
		},
		{
			"buffer":0,
			"byteLength":8388,
			"byteOffset":91680,
			"target":34963
		}
	],
	"samplers":[
		{
			"magFilter":9728,
			"minFilter":9984
		}
	],
	"buffers":[
		{
			"byteLength":100068,
			"uri":"Zaku.bin"
		}
	]
}
